<svg width="22" height="18" viewBox="0 0 22 18" fill="none" xmlns="http://www.w3.org/2000/svg">
<path d="M11.0003 3.50002C14.4745 3.50002 17.5728 5.45252 19.0853 8.54168C18.5445 9.66002 17.7837 10.6225 16.8762 11.4017L18.1687 12.6942C19.4428 11.5667 20.4512 10.155 21.0837 8.54168C19.4978 4.51752 15.5837 1.66668 11.0003 1.66668C9.83616 1.66668 8.71782 1.85002 7.66366 2.18918L9.17616 3.70168C9.77199 3.58252 10.377 3.50002 11.0003 3.50002ZM10.0195 4.54502L11.917 6.44252C12.4395 6.67168 12.8612 7.09335 13.0903 7.61585L14.9878 9.51335C15.0612 9.20168 15.1162 8.87168 15.1162 8.53252C15.1253 6.25918 13.2737 4.41668 11.0003 4.41668C10.6612 4.41668 10.3403 4.46252 10.0195 4.54502ZM1.84283 1.54752L4.29949 4.00418C2.80533 5.17752 1.62283 6.73585 0.916992 8.54168C2.50283 12.5659 6.41699 15.4167 11.0003 15.4167C12.3937 15.4167 13.732 15.1509 14.9603 14.665L18.0953 17.8L19.3878 16.5075L3.13533 0.24585L1.84283 1.54752ZM8.71783 8.42252L11.1103 10.815C11.0737 10.8242 11.037 10.8334 11.0003 10.8334C9.73533 10.8334 8.70866 9.80668 8.70866 8.54168C8.70866 8.49585 8.71783 8.46835 8.71783 8.42252V8.42252ZM5.60116 5.30585L7.20533 6.91002C6.99449 7.41418 6.87533 7.96418 6.87533 8.54168C6.87533 10.815 8.72699 12.6667 11.0003 12.6667C11.5778 12.6667 12.1278 12.5475 12.6228 12.3367L13.5212 13.235C12.7145 13.455 11.8712 13.5834 11.0003 13.5834C7.52616 13.5834 4.42783 11.6309 2.91533 8.54168C3.55699 7.23085 4.49199 6.14918 5.60116 5.30585Z" fill="#313131"/>
</svg>