<svg width="28" height="28" viewBox="0 0 28 28" fill="none" xmlns="http://www.w3.org/2000/svg">
<path d="M14 0C17.8038 0 18.2784 0.0139999 19.7708 0.0839999C21.2618 0.154 22.2768 0.3878 23.17 0.735C24.094 1.0906 24.8724 1.5722 25.6508 2.3492C26.3627 3.04905 26.9135 3.89562 27.265 4.83C27.6108 5.7218 27.846 6.7382 27.916 8.2292C27.9818 9.7216 28 10.1962 28 14C28 17.8038 27.986 18.2784 27.916 19.7708C27.846 21.2618 27.6108 22.2768 27.265 23.17C26.9145 24.1049 26.3636 24.9517 25.6508 25.6508C24.9507 26.3624 24.1042 26.9133 23.17 27.265C22.2782 27.6108 21.2618 27.846 19.7708 27.916C18.2784 27.9818 17.8038 28 14 28C10.1962 28 9.7216 27.986 8.2292 27.916C6.7382 27.846 5.7232 27.6108 4.83 27.265C3.89526 26.9143 3.04854 26.3633 2.3492 25.6508C1.63717 24.9511 1.0863 24.1045 0.735 23.17C0.3878 22.2782 0.154 21.2618 0.0839999 19.7708C0.0181999 18.2784 0 17.8038 0 14C0 10.1962 0.0139999 9.7216 0.0839999 8.2292C0.154 6.7368 0.3878 5.7232 0.735 4.83C1.08533 3.89505 1.63633 3.04825 2.3492 2.3492C3.04874 1.63692 3.8954 1.08602 4.83 0.735C5.7232 0.3878 6.7368 0.154 8.2292 0.0839999C9.7216 0.0181999 10.1962 0 14 0ZM14 7C12.1435 7 10.363 7.7375 9.05025 9.05025C7.7375 10.363 7 12.1435 7 14C7 15.8565 7.7375 17.637 9.05025 18.9497C10.363 20.2625 12.1435 21 14 21C15.8565 21 17.637 20.2625 18.9497 18.9497C20.2625 17.637 21 15.8565 21 14C21 12.1435 20.2625 10.363 18.9497 9.05025C17.637 7.7375 15.8565 7 14 7ZM23.1 6.65C23.1 6.18587 22.9156 5.74075 22.5874 5.41256C22.2592 5.08437 21.8141 4.9 21.35 4.9C20.8859 4.9 20.4408 5.08437 20.1126 5.41256C19.7844 5.74075 19.6 6.18587 19.6 6.65C19.6 7.11413 19.7844 7.55925 20.1126 7.88744C20.4408 8.21563 20.8859 8.4 21.35 8.4C21.8141 8.4 22.2592 8.21563 22.5874 7.88744C22.9156 7.55925 23.1 7.11413 23.1 6.65ZM14 9.8C15.1139 9.8 16.1822 10.2425 16.9698 11.0302C17.7575 11.8178 18.2 12.8861 18.2 14C18.2 15.1139 17.7575 16.1822 16.9698 16.9698C16.1822 17.7575 15.1139 18.2 14 18.2C12.8861 18.2 11.8178 17.7575 11.0302 16.9698C10.2425 16.1822 9.8 15.1139 9.8 14C9.8 12.8861 10.2425 11.8178 11.0302 11.0302C11.8178 10.2425 12.8861 9.8 14 9.8Z" fill="white"/>
</svg>