<svg xmlns="http://www.w3.org/2000/svg" viewBox="0 0 580.97 336.12"><defs><style>.cls-1{font-size:299.56px;font-family:Calibri-BoldItalic, Calibri;font-weight:700;font-style:italic;}</style></defs><g id="Layer_2" data-name="Layer 2"><g id="Layer_1-2" data-name="Layer 1"><text class="cls-1" transform="translate(0 244.41)">sag</text><rect x="473.44" y="213.55" width="18.82" height="82.21" rx="9.41"/><rect x="503.96" y="201.1" width="18.82" height="114.36" rx="9.41"/><rect x="533.15" y="220.81" width="18.82" height="57.18" rx="9.41" transform="translate(1085.13 498.8) rotate(180)"/><path d="M540.05,96.78A26.68,26.68,0,1,1,513.37,70.1,26.67,26.67,0,0,1,540.05,96.78Zm39.81,91.37A47.4,47.4,0,0,0,574,173.21,67.42,67.42,0,0,0,558.92,156c-2.46-2-7.79-3.68-8.07-7.1-.24-3.06.8-6.67,1.21-9.71s.83-6.2,1-9.32c1.33-19.87-.91-40.09-8.05-58.76a109.37,109.37,0,0,0-20-33.37c-.58-.65-10.17-9.27-11.32-10.17a.47.47,0,0,0-.36-.16.45.45,0,0,0-.37.16c-1.12.87-10.74,9.52-11.32,10.17a109.37,109.37,0,0,0-20,33.37c-7.14,18.67-9.38,38.89-8.06,58.76.21,3.12.62,6.22,1,9.32s1.45,6.65,1.2,9.71c-.27,3.42-5.6,5.06-8.06,7.1a67.42,67.42,0,0,0-15.09,17.25,47.4,47.4,0,0,0-5.85,14.94c-.53,2.67-3.16,15.77,2.18,14.09,2.09-.66,4.26-2.64,6.16-3.76a122.64,122.64,0,0,1,58.14-16.78,122.51,122.51,0,0,1,58.14,16.78c1.91,1.12,4.08,3.1,6.17,3.76C583,203.92,580.39,190.82,579.86,188.15Z"/></g></g></svg>