<svg width="22" height="15" viewBox="0 0 22 15" fill="none" xmlns="http://www.w3.org/2000/svg">
<path d="M11.0003 2.50002C14.4745 2.50002 17.5728 4.45252 19.0853 7.54169C17.5728 10.6309 14.4745 12.5834 11.0003 12.5834C7.52616 12.5834 4.42783 10.6309 2.91533 7.54169C4.42783 4.45252 7.52616 2.50002 11.0003 2.50002ZM11.0003 0.666687C6.41699 0.666687 2.50283 3.51752 0.916992 7.54169C2.50283 11.5659 6.41699 14.4167 11.0003 14.4167C15.5837 14.4167 19.4978 11.5659 21.0837 7.54169C19.4978 3.51752 15.5837 0.666687 11.0003 0.666687ZM11.0003 5.25002C12.2653 5.25002 13.292 6.27669 13.292 7.54169C13.292 8.80669 12.2653 9.83335 11.0003 9.83335C9.73532 9.83335 8.70866 8.80669 8.70866 7.54169C8.70866 6.27669 9.73532 5.25002 11.0003 5.25002ZM11.0003 3.41669C8.72699 3.41669 6.87533 5.26835 6.87533 7.54169C6.87533 9.81502 8.72699 11.6667 11.0003 11.6667C13.2737 11.6667 15.1253 9.81502 15.1253 7.54169C15.1253 5.26835 13.2737 3.41669 11.0003 3.41669Z" fill="#313131"/>
</svg>